<?xml version="1.0" encoding="UTF-8" standalone="no"?>
<svg xmlns="http://www.w3.org/2000/svg" xmlns:xlink="http://www.w3.org/1999/xlink" width="192" height="192" viewBox="0 0 144 144">
  <linearGradient id="c" x1="15.193" x2="120.855" y1="77.313" y2="77.313" gradientUnits="userSpaceOnUse">
    <stop offset="0" stop-color="#fff"/>
    <stop offset="1"/>
  </linearGradient>
  <linearGradient id="d" x1="30.131" x2="101.383" y1="114.274" y2="39.161" gradientUnits="userSpaceOnUse">
    <stop offset=".011" stop-color="#98aff2"/>
    <stop offset=".096" stop-color="#9db3f3"/>
    <stop offset=".199" stop-color="#acbff5"/>
    <stop offset=".31" stop-color="#c4d2f8"/>
    <stop offset=".428" stop-color="#e6ecfc"/>
    <stop offset=".5" stop-color="#fff"/>
    <stop offset=".519" stop-color="#f7f9fe"/>
    <stop offset=".611" stop-color="#d5defa"/>
    <stop offset=".704" stop-color="#bacaf6"/>
    <stop offset=".799" stop-color="#a7bbf4"/>
    <stop offset=".897" stop-color="#9cb2f2"/>
    <stop offset="1" stop-color="#98aff2"/>
  </linearGradient>
  <linearGradient id="a">
    <stop offset=".011" stop-color="#b1caff"/>
    <stop offset=".111" stop-color="#b6cdff"/>
    <stop offset=".232" stop-color="#c5d8ff"/>
    <stop offset=".363" stop-color="#dde8ff"/>
    <stop offset=".5" stop-color="#fff"/>
    <stop offset=".526" stop-color="#f8faff"/>
    <stop offset=".64" stop-color="#dde6ff"/>
    <stop offset=".755" stop-color="#cad8ff"/>
    <stop offset=".874" stop-color="#bfd0ff"/>
    <stop offset="1" stop-color="#bbcdff"/>
  </linearGradient>
  <linearGradient id="e" x1="1065.43" x2="1158.018" y1="95.011" y2="2.423" gradientTransform="matrix(.849 -.5284 .5284 .849 -910.0727 618.7241)" gradientUnits="userSpaceOnUse" xlink:href="#a"/>
  <linearGradient id="f" x1="1073.158" x2="1164.618" y1="102.772" y2="11.311" gradientTransform="matrix(.849 -.5284 .5284 .849 -910.0727 618.7241)" gradientUnits="userSpaceOnUse" xlink:href="#a"/>
  <linearGradient id="g" x1="75.36" x2="167.626" y1="92.327" y2="241.508" gradientUnits="userSpaceOnUse">
    <stop offset="0" stop-color="#fff"/>
    <stop offset="1" stop-color="#9195f2"/>
  </linearGradient>
  <linearGradient id="b">
    <stop offset="0" stop-color="#9ab1ff"/>
    <stop offset="1" stop-color="#444973"/>
  </linearGradient>
  <linearGradient id="h" x1="14.187" x2="117.257" y1="76.693" y2="76.693" gradientUnits="userSpaceOnUse" xlink:href="#b"/>
  <linearGradient id="i" x1="57.506" x2="73.948" y1="76.751" y2="76.751" gradientUnits="userSpaceOnUse" xlink:href="#b"/>
  <linearGradient id="j" x1="49.926" x2="81.527" y1="76.751" y2="76.751" gradientUnits="userSpaceOnUse">
    <stop offset="0" stop-color="#9ab1ff"/>
    <stop offset="1" stop-color="#626aa4"/>
  </linearGradient>
  <linearGradient id="k" x1="37.647" x2="114.547" y1="69.498" y2="126.419" gradientUnits="userSpaceOnUse" xlink:href="#b"/>
  <g fill="#fff" stroke-width="0">
    <path fill="none" d="m144 144h-144v-144h144z"/>
    <path fill="#000" d="m103.995 122.896c0 8.636-23.175 15.634-51.762 15.634-28.588 0-51.764-6.999-51.764-15.634 0-8.633 23.175-15.633 51.764-15.633 28.587 0 51.762 7 51.762 15.633z" opacity=".2"/>
    <path fill="url(#c)" d="m35.905 25.71c-23.226 14.456-27.676 49.278-9.936 77.78 17.738 28.5 50.945 39.883 74.173 25.426 23.228-14.458 27.677-49.276 9.938-77.778s-50.946-39.886-74.175-25.428zm36.384 58.455c-3.084 1.919-7.494.405-9.848-3.376-2.353-3.783-1.761-8.403 1.32-10.322 3.084-1.92 7.49-.41 9.845 3.374 2.354 3.783 1.766 8.406-1.317 10.325z" opacity=".2"/>
    <path fill="url(#d)" d="m33.609 25.148c-23.228 14.458-27.678 49.28-9.939 77.78 17.737 28.497 50.947 39.884 74.175 25.426 23.227-14.456 27.677-49.281 9.939-77.778-17.739-28.501-50.949-39.886-74.175-25.428zm36.38 58.452c-3.083 1.918-7.492.408-9.847-3.374-2.354-3.783-1.762-8.408 1.32-10.325 3.083-1.92 7.491-.408 9.846 3.377 2.354 3.781 1.763 8.403-1.32 10.322z"/>
    <path fill="url(#e)" d="m60.142 80.226c-.219-.352-.398-.709-.572-1.072l-30.372 31.511c10.303 12.641 23.903 20.736 37.559 23.17l-1.525-49.653c-1.94-.536-3.815-1.908-5.09-3.956z"/>
    <path fill="url(#f)" d="m68.212 70.19 30.373-31.514c-10.144-10.669-22.765-17.367-35.34-19.245l1.526 49.652c1.161.063 2.342.445 3.441 1.107z"/>
    <path d="m60.142 80.226c-.219-.352-.398-.709-.572-1.072l-30.372 31.511c10.303 12.641 23.903 20.736 37.559 23.17l-1.525-49.653c-1.94-.536-3.815-1.908-5.09-3.956z" opacity=".8"/>
    <path d="m68.212 70.19 30.373-31.514c-10.144-10.669-22.765-17.367-35.34-19.245l1.526 49.652c1.161.063 2.342.445 3.441 1.107z" opacity=".8"/>
    <g opacity=".4">
      <path d="m61.361 81.637c-.281-.3-.538-.609-.775-.93l-20.802 40.32c12.423 9.997 26.838 14.469 40.005 13.19l-12.82-49.967c-1.914-.011-3.964-.887-5.608-2.614z" opacity=".8"/>
      <path d="m66.504 69.235 20.8-40.325c-11.819-8.038-25.014-11.367-37.055-9.814l12.821 49.96c1.087-.254 2.27-.188 3.434.18z" opacity=".8"/>
    </g>
    <g opacity=".68">
      <path d="m67.781 83.536c-.334.072-.675.1-1.016.111l24.713 46.987c12.397-5.098 21.108-15.822 24.788-29.236l-44.396-21.445c-.692 1.82-2.125 3.177-4.088 3.583z" opacity=".9"/>
      <path d="m59.734 70.282-24.716-46.993c-10.626 5.847-17.984 16.178-21.045 28.698l44.397 21.445c.182-1.209.657-2.291 1.365-3.15z" opacity=".9"/>
    </g>
    <path fill="url(#g)" d="m24.177 102.612c17.497 28.113 50.368 39.383 73.28 25.122 22.91-14.259 27.316-48.731 9.819-76.844-17.497-28.111-50.372-39.381-73.282-25.122-22.912 14.261-27.314 48.732-9.817 76.844zm80.552-50.136c16.623 26.707 12.649 59.326-8.857 72.711-8.838 5.501-19.872 7.095-31.069 4.489-15.048-3.502-28.927-13.944-38.079-28.649-16.623-26.707-12.65-59.326 8.856-72.711s52.526-2.547 69.149 24.161z"/>
    <path fill="url(#h)" d="m68.213 17.691c16.652 3.875 31.943 15.32 41.952 31.401 18.448 29.642 13.523 66.165-10.979 81.416-24.503 15.251-59.448 3.543-77.898-26.098-7.343-11.796-11.192-25.042-11.192-37.835 0-4.646.508-9.231 1.54-13.667 2.996-12.874 10.323-23.498 20.632-29.914 10.307-6.416 23.072-8.299 35.945-5.303zm28.86 109.421c22.625-14.083 26.978-48.139 9.697-75.906-17.284-27.769-49.76-38.9-72.387-24.815-22.631 14.086-26.983 48.138-9.698 75.906 17.282 27.766 49.757 38.901 72.388 24.815z"/>
    <path fill="url(#i)" d="m59.133 80.857c2.776 4.459 7.994 6.249 11.631 3.986 3.636-2.263 4.336-7.736 1.561-12.197-2.779-4.462-7.998-6.253-11.635-3.989-3.636 2.264-4.334 7.736-1.556 12.2zm9.795-6.098c1.557 2.502 1.427 5.627-.277 6.688-1.705 1.061-4.565-.203-6.122-2.703-.73-1.174-1.09-2.486-1.09-3.658 0-1.325.46-2.47 1.365-3.034 1.704-1.061 4.566.205 6.125 2.707z"/>
    <path fill="url(#j)" d="m53.051 84.642c5.338 8.575 15.368 12.014 22.356 7.663 6.991-4.35 8.331-14.866 2.994-23.44-5.337-8.577-15.365-12.018-22.354-7.667-6.99 4.352-8.333 14.871-2.996 23.445zm3.895-2.424c-3.699-5.942-2.769-13.229 2.073-16.244 4.843-3.013 11.79-.63 15.488 5.313 3.698 5.94 2.767 13.225-2.074 16.239-4.843 3.014-11.792.631-15.487-5.308z" opacity=".5"/>
    <path fill="url(#k)" d="m102.445 90.494c-1.2.375-1.834 1.225-2.141 1.633 0 0-.044.059-.044.061l-.464.561-.244.285-3.732 4.438-1.025 1.211c-.875 1.031-1.779 2.095-2.65 3.19 0 0-.197.256-.367.481-.239-.75-.478-1.503-.742-2.255l-.597-1.651c-.428-1.169-.832-2.272-1.169-3.388l-.137-.461c-.174-.595-.371-1.272-.669-1.962l.011.026-.012-.033c-.708-1.828-2.064-2.234-2.813-2.313l-.867-.016-.099.005c-.006 0-35.153 0-35.153 0s0 1.467 0 2.934c-1.425-.35-2.849-.7-2.849-.7l-1.046 4.244-.048.167c-.113.374-.284.939-.284 1.617 0 0 .104.239.139.317-.309.409-.525.901-.604 1.459l.035-.183-.299 1.242-2.031 8.492-.681 2.863-.206.876-.437 1.806-.071.236c-.133.43-.334 1.078-.334 1.838v2.934h10.142l4.937.013.768.001c2.14.009 4.032-.124 5.784-.405 3.839-.614 7.32-1.839 10.349-3.637 2.928-1.741 5.148-3.724 6.638-5.916.039.106 2.214 6.256 2.214 6.256l.556 1.594c.439 1.264.891 2.572 1.392 3.861l.028.07.364 1.005.094.361c.331 1.548 1.646 2.544 3.208 2.422l-.164.006 1.95-.478s.251-.452.483-.869l.188-.219c.787-.957 1.628-1.874 2.517-2.844 0 0 1.117-1.227 1.119-1.227l4.013-4.527 2.119-2.4 2.411-2.727s.4-.45.972-1.095c-.212.894-.413 1.742-.413 1.742l-.667 2.814-.172.667c-.185.686-.393 1.461-.472 2.333l-.284 3.197h11.883l1.459.005c3.328.017 6.769.034 10.242-.716 1.922-.416 3.8-1.016 5.581-1.78 1.975-.85 3.692-1.94 5.111-2.896 3.116-2.094 5.45-5.17 6.408-8.438.581-1.981.621-4.01.118-5.864-.513-1.881-1.622-3.692-3.211-5.237-2.492-2.422-5.965-4.033-10.33-4.791-.906-.156-1.869-.278-2.862-.357-.854-.07-1.663-.066-2.445-.063l-.63.001-5.791-.008h-5.784l-1.688.012c-1.251.013-2.435.025-3.605-.025l-.276-.016c-.683-.042-1.617-.097-2.619.216h-.001zm-50.703 13.063h1.763c-.241 1.019-1.884 7.956-1.884 7.956s-.535 2.31-.711 3.069c-.051 0-1.793 0-3.448 0 .053-.229.108-.461.108-.461l.682-2.864s1.341-5.607 1.842-7.7zm6.961 3.525s1.177-4.974 1.301-5.494c.668.014 1.326.039 1.963.108.627.068 3.766.49 3.942 2.134.009.095.014.19.014.286 0 1.552-1.327 3.005-2.631 3.734-.43.241-.936.433-1.566.646-.874.297-1.577.484-2.212.589-.424.07-.866.109-1.317.138.236-.999.507-2.141.507-2.141zm14.301-10.907h2.052v2.315c0 .958.236 1.717.431 2.349.13.416.214.869.266 1.428.03.309.044.614.044.908 0 1.014-.17 1.931-.51 2.737-.809 1.92-2.709 3.808-5.494 5.463-1.317.784-2.768 1.417-4.316 1.923.228-.108.452-.199.681-.327 3.498-1.959 5.634-5.362 5.634-8.859 0-.302-.016-.604-.047-.906-.378-3.523-3.042-6.065-7.251-7.031zm20.814 13.158.814-1.056.542-.689.681-.905.881-1.158c.813-1.019 1.686-2.048 2.531-3.044l1.045-1.234 3.728-4.434.211-.244s.181-.223.359-.439c.033.001.472.027.472.027.75.033 1.497.042 2.234.042-.72.406-1.176.974-1.411 1.271 0 0-.064.081-.069.086-.017.02-2.956 3.306-2.956 3.306l-5.363 6.043-2.405 2.721-2.129 2.414-3.972 4.478s-.641.703-.895.984c-.124-.355-.249-.702-.374-1.067l-.569-1.631-3.916-11.064-.853-2.386s-.917-2.56-.947-2.639c-.006-.022-.018-.065-.018-.065-.362-1.275-.942-2.025-1.553-2.474h3.589c.006.023.173.589.173.589.386 1.273.837 2.506 1.275 3.7l.572 1.584c.597 1.692 1.122 3.465 1.631 5.18.175.594.344 1.227.391 1.836.122 1.647 1.484 2.939 3.102 2.939l1.984-.217.828-1.84c.083-.166.205-.359.385-.613h-.002zm14.37 3.462 1.352-5.683.526-2.297.219-.977s.031-.126.073-.298c.508.008 1.175.016 1.175.016s1.202 0 2.275 0c-.125.53-.251 1.065-.251 1.065l-.227.97-.306 1.286c-.367 1.534-.747 3.122-1.077 4.716 0 0-.453 2.225-.608 2.987-.981 0-1.828 0-3.573 0 .195-.828.422-1.786.422-1.786zm10.543-4.552.31-1.3.231-.986.453-1.908.155-.617c.15-.574.3-1.224.42-1.902 1.281.047 2.508.182 3.656.506.979.277 1.638.622 1.956 1.027.211.267.325.639.325 1.056 0 .031-.001.063-.003.095-.055 1.362-1.018 2.702-2.577 3.583-.513.291-1.1.545-1.747.756-.847.278-1.583.463-2.186.547-.396.057-.808.083-1.222.108.077-.322.151-.648.228-.965zm7.817 4.662c3.337-1.887 5.412-5.047 5.551-8.453.003-.109.006-.22.006-.331 0-1.734-.556-3.389-1.584-4.692-1.117-1.417-2.742-2.411-4.967-3.041-.229-.064-.453-.103-.68-.156.792.067 1.555.161 2.269.286 3.175.55 5.611 1.633 7.239 3.214.838.813 1.403 1.702 1.639 2.569.097.356.146.737.146 1.131 0 .499-.078 1.017-.233 1.542-.578 1.975-2.055 3.878-4.05 5.22-1.195.803-2.624 1.714-4.153 2.372-.651.28-1.322.522-2 .745.273-.133.558-.259.817-.406z"/>
    <path d="m48.944 92.947h23.473 11.683c.219 0 .436-.028.655-.005.259.027.337.353.428.566.295.68.477 1.403.69 2.111.53 1.742 1.202 3.445 1.808 5.163.619 1.756 1.147 3.534 1.676 5.318.241.811.439 1.611.503 2.455.008.106.102.22.175.22.053-.152.119-.3.191-.444.175-.345.387-.672.612-.989.448-.633.95-1.223 1.425-1.839.535-.695 1.044-1.409 1.589-2.099 1.175-1.475 2.414-2.896 3.626-4.339 1.244-1.479 2.487-2.958 3.731-4.436.269-.319.55-.631.801-.964.197-.258.397-.564.722-.666.59-.185 1.283-.096 1.891-.069 1.801.08 3.617.016 5.422.016h5.783s3.856.001 5.784.008c.947.003 1.9-.027 2.845.05.871.072 1.738.177 2.599.327 3.178.552 6.431 1.716 8.784 4.001 1.106 1.077 2.016 2.402 2.423 3.903.381 1.401.307 2.884-.1 4.27-.82 2.797-2.838 5.217-5.231 6.83-1.486 1-2.981 1.922-4.631 2.633-1.623.697-3.315 1.234-5.042 1.606-3.644.789-7.378.647-11.083.647-2.891 0-5.783 0-8.673 0 .077-.875.374-1.734.575-2.587.222-.936.444-1.874.666-2.81.45-1.895.901-3.791 1.352-5.686.256-1.08.494-2.162.739-3.245.117-.516.237-1.028.376-1.538.075-.273.136-.667.323-.892.094-.111.313-.125.445-.141.292-.034.591-.031.886-.026.693.014 1.386.031 2.078.031h5.951c-.12.926-.389 1.823-.611 2.729-.237.969-.459 1.944-.689 2.916-.466 1.97-.953 3.938-1.364 5.92 1.78 0 3.553.065 5.313-.181.897-.126 1.832-.381 2.694-.666.788-.258 1.555-.583 2.277-.991 2.198-1.244 3.959-3.408 4.065-6.017.043-1.106-.261-2.213-.952-3.088-.852-1.081-2.167-1.667-3.461-2.034-3.237-.916-6.729-.58-10.05-.567-.964.003-1.927.008-2.891.013-.461.001-.925.005-1.388.006-.475.001-1.004-.063-1.472.017-.396.065-.669.539-.919.82-.339.378-.676.756-1.014 1.136-.651.729-1.301 1.457-1.951 2.183-2.6 2.906-5.175 5.834-7.761 8.754-2.038 2.302-4.059 4.622-6.116 6.908-1.245 1.383-2.537 2.732-3.72 4.168-.114.141-.283.302-.348.475-.002.008-.005.014-.005.021-.128 0-.142.039-.172-.104-.044-.206-.099-.409-.161-.609-.131-.433-.297-.856-.461-1.278-.689-1.771-1.284-3.582-1.918-5.372-1.306-3.688-2.609-7.376-3.914-11.064-.403-1.139-.814-2.273-1.22-3.409-.199-.55-.394-1.1-.592-1.648-.105-.295-.255-1.17-.692-1.17 0 .519.147.983.302 1.478.206.666.319 1.331.383 2.025.161 1.712-.011 3.462-.685 5.058-1.249 2.965-3.991 5.239-6.697 6.845-2.849 1.694-6.05 2.741-9.314 3.264-1.763.283-3.526.375-5.31.367-1.905-.005-3.81-.014-5.715-.014-1.938 0-3.875 0-5.812 0-.464 0-.93 0-1.395 0 0-.436.199-.908.31-1.33.239-.91.44-1.832.658-2.746.902-3.783 1.798-7.567 2.712-11.347.101-.416.199-.83.299-1.244.037-.153-.003-.227.172-.227h.349.699 2.796 5.474c-.913 3.854-1.826 7.711-2.739 11.565 1.842 0 3.7.094 5.516-.209.91-.15 1.803-.408 2.675-.705.708-.241 1.402-.497 2.055-.862 2.427-1.358 4.414-3.992 4.103-6.893-.345-3.225-3.754-4.439-6.543-4.74-1.688-.183-3.39-.138-5.084-.136-1.937.005-3.874 0-5.811 0-.739 0-1.478 0-2.217 0-.156 0-.311 0-.467 0-.126 0-.467.066-.467-.075 0-.347.164-.744.248-1.082.348-1.416.698-2.83 1.046-4.245"/>
  </g>
</svg>
